# xmcd
#
# Track frame offsets: 
#        150
#        18088
#        37102
#        55053
#        70424
#        91079
#        107285
#        126032
#        143563
#        161858
#        182135
#        198336
#        215480
#        231986
#
# Disc length: 3330 seconds
#
# Revision: 0
# Processed by: cddbd v1.5.1PL2 Copyright (c) Steve Scherf et al.
# Submitted via: ExactAudioCopy v0.95b4
#
DISCID=bd0d000e
DTITLE=Phyne Ballerz - Phyne Ballerz
DYEAR=1900
DGENRE=
TTITLE0=Tak Pasti
TTITLE1=Jangan Pisahkan
TTITLE2=Kembali Pada Diri Ini
TTITLE3=Pergilah
TTITLE4=Apa Saja
TTITLE5=Ale-Ale
TTITLE6=Berdua Ke Akhirnya
TTITLE7=Kita
TTITLE8=Akanku
TTITLE9=Izinkan Daku
TTITLE10=Vida
TTITLE11=Monte Carlo
TTITLE12=Gadis Impian
TTITLE13=Hasrat
EXTD=
EXTT0=
EXTT1=
EXTT2=
EXTT3=
EXTT4=
EXTT5=
EXTT6=
EXTT7=
EXTT8=
EXTT9=
EXTT10=
EXTT11=
EXTT12=
EXTT13=
PLAYORDER=
